# xmcd
#
# Track frame offsets: 
#        150
#        18769
#        31507
#        45294
#        63175
#        85962
#        103705
#        119503
#        133677
#        151280
#        170543
#        185412
#        201496
#        216962
#        232401
#        245922
#        261262
#        275107
#
# Disc length: 3937 seconds
#
# Revision: 0
# Processed by: cddbd v1.5.2PL0 Copyright (c) Steve Scherf et al.
# Submitted via: ExactAudioCopy v1.3
#
DISCID=080f5f12
DTITLE=Various Artist - The Very Best Of Country Music Channel 2011
DYEAR=2011
DGENRE=Country
TTITLE0=Sugarland - Stuck Like Glue
TTITLE1=Alan Jackson - Hard Hat And A Hammer
TTITLE2=Joe Nichols - Gimmie That Girl
TTITLE3=Carrie Underwood - Mama's Song
TTITLE4=Brad Paisle - Old Alabama
TTITLE5=Martina McBride - Teenage Daughters
TTITLE6=Trace Adkins - Just Fishin
TTITLE7=Miranda Lambert - Only Prettier
TTITLE8=Gary Allan - Get Off on The Pain
TTITLE9=Sara Evans - A Little bit Stronger
TTITLE10=Eli Young Band - Crazy Girl
TTITLE11=The Band Perry - You Lie
TTITLE12=Chris Young - The Man I want to Be
TTITLE13=Kellie Pickler - Makin' me Fall in love
TTITLE14=Billy Currington - Pretty Good at Driniing beer
TTITLE15=Sunny Sweeney - Staying's Worse than Leaving
TTITLE16=Josh Kelley - Georgia Clay
TTITLE17=Jamey Johnson - Playing the Part
EXTD=
EXTT0=
EXTT1=
EXTT2=
EXTT3=
EXTT4=
EXTT5=
EXTT6=
EXTT7=
EXTT8=
EXTT9=
EXTT10=
EXTT11=
EXTT12=
EXTT13=
EXTT14=
EXTT15=
EXTT16=
EXTT17=
PLAYORDER=
